<svg xmlns="http://www.w3.org/2000/svg" width="48" height="67">
    <path fill-rule="evenodd" fill="#FF6060" d="M45.959 16.672c-.238-.894-.722-1.846-1.08-2.68C40.598 3.688 31.242.5 23.688.5 13.575.5 2.437 6.785.95 20.782v2.859c0 .119.041 1.191.54 1.728.393 7.021 5.649 13.759 10.16 20.429 3.638 7.147 8.02 14.177 12.48 21.502 2.559-4.883 5.227-9.529 7.843-13.996.713-1.311 1.541-2.621 2.255-3.873.475-.833 1.384-1.666 2.052-2.441 3.971-7.743 11.2-15.546 11.2-23.23v-3.156c0-.834-1.3-3.752-1.521-3.932zM23.873 31.27c-2.973 0-6.226-1.731-7.473-5.842-.599-.654-.58-1.966-.58-2.086v-1.846c0-5.24 4.444-7.623 8.309-7.623 4.759 0 8.439 3.812 8.439 8.578 0 4.765-3.937 8.819-8.695 8.819z"/>
</svg>
